<svg width="367" height="87" viewBox="0 0 367 87" fill="none" xmlns="http://www.w3.org/2000/svg">
<path d="M4.68 22H9.48V42.22L14.22 39.4H21.6L26.46 42.22V22H31.32V64H26.46V47.08L24.18 43.78H11.28L9.48 45.58V64H4.68V22ZM43.1166 31H51.5766L56.3766 38.2V59.68H67.2366V64H40.7166V59.68H51.5766V38.8L49.2966 35.38H43.1166V31ZM50.9766 23.14H56.9766V17.14H50.9766V23.14ZM98.4131 32.08H103.273V50.44L90.1931 64H85.9931L76.6931 50.2V32.08H81.4931V49.54L88.3331 59.74L98.4131 49.24V32.08ZM117.41 32.14H134.21L139.19 39.28L129.29 49.48H117.41V56.2L119.75 59.68H132.47L135.83 56.38L138.47 59.68L134.27 64H117.47L112.61 56.8V37.12L117.41 32.14ZM117.41 38.38V45.16H127.49L133.55 38.8L131.99 36.46H119.33L117.41 38.38Z" fill="#00FF00"/>
<path d="M184.806 21.3055L190.708 15.3877H194.582L197.95 18.7564V27.8405C196.724 28.2258 195.83 29.3678 195.83 30.7229C195.83 32.3868 197.186 33.7419 198.849 33.7419C200.513 33.7419 201.868 32.3868 201.868 30.7229C201.868 29.3733 200.975 28.2258 199.748 27.8405L199.751 18.3871C199.751 18.1521 199.658 17.9227 199.486 17.7533L195.59 13.8573C195.426 13.6906 195.199 13.5977 194.962 13.5977H190.344C190.109 13.5977 189.88 13.6906 189.71 13.8627L183.544 20.0428C183.194 20.3925 183.194 20.9553 183.544 21.305C183.894 21.6547 184.456 21.6552 184.806 21.3055ZM198.86 31.9472C198.183 31.9472 197.634 31.3981 197.634 30.7205C197.634 30.0429 198.183 29.4938 198.86 29.4938C199.538 29.4938 200.087 30.0429 200.087 30.7205C200.087 31.3981 199.53 31.9472 198.86 31.9472Z" fill="#00FF00"/>
<path d="M184.178 30.2336C183.686 30.2336 183.285 30.6325 183.285 31.127V48.9406C183.285 49.4324 183.684 49.834 184.178 49.834C184.67 49.834 185.072 49.4351 185.072 48.9406V31.1242C185.072 30.6324 184.67 30.2336 184.178 30.2336Z" fill="#00FF00"/>
<path d="M178.825 15.423C177.055 13.9039 174.509 13.2236 172.009 13.6033C168.927 14.0733 166.413 16.1169 165.293 18.9146C162.053 19.8791 159.441 22.1631 158.086 25.2586C157.457 26.693 157.129 28.1929 157.108 29.6983C154.11 31.0699 151.941 33.7447 151.247 36.9633C150.548 40.1243 151.354 43.3947 153.403 45.8621C152.397 47.1189 151.733 48.6679 151.575 50.3646C151.212 54.2333 153.517 57.8289 157.121 59.1564C157.25 60.741 157.714 62.2956 158.506 63.7244C160.211 66.7516 163.225 68.8199 166.629 69.3335C167.828 71.3525 169.847 72.8524 172.224 73.3443C172.76 73.4508 173.309 73.5 173.866 73.5C175.822 73.5 177.828 72.8579 179.197 71.7378C180.516 70.6613 181.21 69.2188 181.21 67.5768V20.6692C181.202 18.6064 180.361 16.7371 178.825 15.423ZM179.41 25.6933C177.741 24.166 175.52 23.33 173.181 23.453C172.689 23.4748 172.304 23.8956 172.331 24.3873C172.353 24.8791 172.774 25.2589 173.266 25.237C175.763 25.1168 178.091 26.3517 179.41 28.4637V37.7856H175.856C174.984 37.7856 174.186 37.4086 173.656 36.7446C173.129 36.0671 172.935 35.2037 173.129 34.3677C173.244 33.8896 172.943 33.4033 172.457 33.2912C171.971 33.1765 171.493 33.477 171.38 33.9633C171.066 35.3266 171.372 36.7392 172.244 37.8539C173.115 38.9467 174.427 39.5751 175.847 39.5751H179.402V48.0472H175.856H175.79C174.413 48.0472 173.121 48.6674 172.227 49.7603C171.364 50.8667 171.05 52.2875 171.372 53.6563C171.465 54.0715 171.837 54.3475 172.244 54.3475C172.309 54.3475 172.38 54.3393 172.451 54.3256C172.929 54.2109 173.23 53.7328 173.123 53.2491C172.93 52.4077 173.115 51.5361 173.637 50.8722C174.181 50.2001 174.992 49.8504 175.842 49.8367H179.396V59.1426C178.077 61.2682 175.744 62.4976 173.252 62.3692C172.76 62.3474 172.339 62.7271 172.309 63.2189C172.282 63.7107 172.667 64.1314 173.159 64.1615C173.309 64.1697 173.465 64.1752 173.615 64.1752C175.784 64.1752 177.833 63.3555 179.396 61.9266V67.5877C179.396 68.6941 178.94 69.6286 178.041 70.3635C176.691 71.47 174.438 71.9755 172.561 71.5984C169.864 71.0411 167.749 68.8499 167.307 66.1451C166.842 63.4047 168.091 60.7055 170.49 59.2874C170.919 59.0388 171.052 58.4869 170.804 58.0607C170.555 57.6318 170.003 57.4979 169.577 57.7465C166.536 59.5524 164.952 62.9649 165.536 66.4404C165.585 66.7464 165.656 67.0387 165.744 67.3337C163.353 66.6616 161.282 65.0633 160.042 62.8667C158.564 60.2056 158.449 56.979 159.741 54.2386C159.949 53.7878 159.763 53.2606 159.313 53.0474C158.862 52.8343 158.334 53.0338 158.121 53.4764C157.559 54.6758 157.222 55.9517 157.108 57.244C154.616 56.0391 153.075 53.389 153.34 50.5557C153.646 47.3291 156.217 44.7827 159.449 44.4904C159.941 44.4467 160.304 44.0123 160.263 43.5205C160.22 43.0287 159.785 42.6653 159.294 42.7063C157.537 42.862 155.947 43.5478 154.654 44.6051C153.053 42.5533 152.425 39.9113 152.996 37.3486C153.523 34.9088 155.072 32.846 157.242 31.6384C157.441 32.9006 157.856 34.1355 158.485 35.2995C158.649 35.6 158.955 35.7694 159.269 35.7694C159.411 35.7694 159.561 35.7339 159.698 35.6628C160.132 35.4279 160.296 34.8842 160.061 34.4497C159.362 33.1657 158.985 31.7668 158.911 30.3543C158.919 30.2832 158.919 30.2122 158.903 30.1412C158.867 28.7423 159.138 27.3216 159.722 25.9883C160.714 23.7261 162.507 21.9912 164.747 21.035C164.261 24.7179 166.247 28.3873 169.607 29.9911C170.05 30.2042 170.585 30.013 170.798 29.5704C171.012 29.1278 170.82 28.5923 170.378 28.3792C167.681 27.0951 166.096 24.1335 166.531 21.1772C166.588 20.792 166.681 20.4122 166.796 20.0488C166.823 19.9915 166.84 19.9423 166.861 19.8767C167.689 17.5134 169.738 15.773 172.285 15.3878C174.277 15.0873 176.287 15.6091 177.667 16.7948C178.817 17.7784 179.424 19.1281 179.424 20.6854V25.6934L179.41 25.6933Z" fill="#00FF00"/>
<path d="M165.9 37.5202C165.457 37.2907 164.922 37.4628 164.695 37.9055C164.466 38.3481 164.646 38.8835 165.08 39.1104C166.843 40.0174 167.935 41.8152 167.935 43.8068C167.935 45.7849 166.837 47.5826 165.072 48.5033C164.638 48.7328 164.466 49.2738 164.695 49.7082C164.851 50.0142 165.165 50.1864 165.487 50.1864C165.63 50.1864 165.766 50.1508 165.903 50.0853C168.258 48.8586 169.722 46.4461 169.722 43.7986C169.725 41.1457 168.263 38.7333 165.9 37.5202Z" fill="#00FF00"/>
<path d="M202.322 25.16H204.371L208.404 29.1926V34.2443L204.243 38.4053C203.893 38.7551 203.893 39.3179 204.243 39.6676C204.415 39.8397 204.65 39.9326 204.876 39.9326C205.106 39.9326 205.333 39.8479 205.51 39.6676L209.936 35.2416C210.108 35.0694 210.201 34.8481 210.201 34.6077V28.8184C210.201 28.5834 210.108 28.3539 209.936 28.1845L205.376 23.6246C205.212 23.4525 204.983 23.3596 204.742 23.3596H202.322C201.83 23.3596 201.428 23.7585 201.428 24.253C201.42 24.7584 201.822 25.16 202.322 25.16Z" fill="#00FF00"/>
<path d="M202.62 55.9704C203.112 55.9704 203.513 55.5715 203.513 55.077V45.52C203.513 45.2851 203.42 45.0556 203.248 44.8862L201.235 42.8726C201.063 42.7005 200.841 42.6076 200.601 42.6076H196.803C196.418 41.3809 195.276 40.4875 193.921 40.4875C192.257 40.4875 190.902 41.8426 190.902 43.5065C190.902 45.1704 192.257 46.5255 193.921 46.5255C195.27 46.5255 196.418 45.6321 196.803 44.4054H200.229L201.721 45.8971V55.0743C201.721 55.5688 202.12 55.9704 202.62 55.9704ZM193.92 44.7362C193.243 44.7362 192.694 44.187 192.694 43.5095C192.694 42.8319 193.243 42.2827 193.92 42.2827C194.598 42.2827 195.147 42.8319 195.147 43.5095C195.147 44.1734 194.584 44.7362 193.92 44.7362Z" fill="#00FF00"/>
<path d="M215.231 41.2524C215.231 39.5885 213.876 38.2334 212.212 38.2334C210.548 38.2334 209.193 39.5885 209.193 41.2524C209.193 42.602 210.087 43.7495 211.313 44.1348V55.0961L206.917 59.5058H201.614C201.122 59.5058 200.721 59.9047 200.721 60.3992C200.721 60.891 201.12 61.2926 201.614 61.2926H207.289C207.524 61.2926 207.753 61.1997 207.923 61.0275L212.84 56.096C213.004 55.9321 213.106 55.7026 213.106 55.4622V44.1294C214.34 43.7496 215.231 42.602 215.231 41.2524ZM212.212 42.4736C211.535 42.4736 210.985 41.9245 210.985 41.2469C210.985 40.5693 211.535 40.0202 212.212 40.0202C212.89 40.0202 213.439 40.5693 213.439 41.2469C213.439 41.9245 212.89 42.4736 212.212 42.4736Z" fill="#00FF00"/>
<path d="M201.357 63.3143C199.694 63.3143 198.338 64.6694 198.338 66.3333C198.338 66.8388 198.467 67.3168 198.688 67.7403L194.863 71.579H189.683L185.079 66.9754L185.077 59.3936C185.077 58.9018 184.678 58.5002 184.183 58.5002C183.692 58.5002 183.29 58.8991 183.29 59.3936V67.3356C183.29 67.5705 183.383 67.8 183.555 67.9694L188.686 73.1003C188.85 73.2725 189.079 73.3654 189.32 73.3654H195.243C195.478 73.3654 195.707 73.2725 195.877 73.1003L199.953 69.0103C200.374 69.2398 200.852 69.3682 201.366 69.3682C203.03 69.3682 204.385 68.0049 204.385 66.3356C204.368 64.6608 203.021 63.3143 201.357 63.3143ZM201.357 67.5655C200.68 67.5655 200.131 67.0081 200.131 66.3224C200.131 65.6448 200.68 65.0957 201.357 65.0957C202.035 65.0957 202.584 65.6448 202.584 66.3224C202.579 67.0109 202.027 67.5655 201.357 67.5655Z" fill="#00FF00"/>
<path d="M193.678 25.1383C193.678 23.4744 192.323 22.1193 190.659 22.1193C188.995 22.1193 187.64 23.4744 187.64 25.1383C187.64 26.488 188.533 27.6355 189.76 28.0207V32.6326C189.76 32.8675 189.853 33.097 190.025 33.2664L193.137 36.3783C193.309 36.5559 193.544 36.6433 193.771 36.6433C194 36.6433 194.227 36.5586 194.404 36.3783C194.754 36.0286 194.754 35.4658 194.404 35.1161L191.549 32.261V28.0207C192.779 27.6355 193.678 26.4934 193.678 25.1383ZM190.659 23.917C191.336 23.917 191.885 24.4662 191.885 25.1438C191.885 25.8213 191.336 26.3705 190.659 26.3705C189.981 26.3705 189.432 25.8213 189.432 25.1438C189.432 24.4662 189.981 23.917 190.659 23.917Z" fill="#00FF00"/>
<path d="M194.407 51.8857C194.757 51.536 194.757 50.9732 194.407 50.6235C194.057 50.2737 193.495 50.2737 193.145 50.6235L190.033 53.749C189.869 53.913 189.768 54.1425 189.768 54.3774V58.9729C188.541 59.3581 187.648 60.5001 187.648 61.8553C187.648 63.5191 189.003 64.8743 190.667 64.8743C192.331 64.8743 193.686 63.5191 193.686 61.8553C193.686 60.5056 192.793 59.3581 191.566 58.9729V54.749L194.407 51.8857ZM190.659 63.0849C189.981 63.0849 189.432 62.5357 189.432 61.8582C189.432 61.1806 189.981 60.6287 190.659 60.6287C191.336 60.6287 191.885 61.1779 191.885 61.8555C191.885 62.5358 191.336 63.0849 190.659 63.0849Z" fill="#00FF00"/>
<path d="M226.971 22H231.771V23.68L238.071 32.98L248.691 22H253.551V64H248.691V28.3L242.751 34.54V40H237.531V39.88L231.771 31.36V64H226.971V22ZM265.348 31H273.808L278.608 38.2V59.68H289.468V64H262.948V59.68H273.808V38.8L271.528 35.38H265.348V31ZM273.208 23.14H279.208V17.14H273.208V23.14ZM298.924 32.14H303.724V35.02L308.584 32.14H320.644L325.504 39.22V64H320.644V39.82L318.364 36.46H305.584L303.724 38.38V64H298.924V32.14ZM356.681 19.06H361.541V64H356.681V61.12L351.881 64H339.941L334.961 56.74V37.18L339.821 32.08H351.821L356.681 34.96V19.06ZM339.821 56.14L342.101 59.62H354.941L356.681 57.82V39.88L354.401 36.46H341.681L339.821 38.38V56.14Z" fill="#00FF00"/>
</svg>
