<svg width="324" height="87" viewBox="0 0 324 87" fill="none" xmlns="http://www.w3.org/2000/svg">
<path d="M7.62 43.6V38.8H36.42V43.6H7.62ZM33 22H38.1V64H33V22ZM4.8 22H9.9V64H4.8V22ZM47.3906 25C47.3906 24.08 47.7106 23.3 48.3506 22.66C49.0306 22.02 49.8106 21.7 50.6906 21.7C51.6106 21.7 52.3906 22.02 53.0306 22.66C53.6706 23.3 53.9906 24.08 53.9906 25C53.9906 25.88 53.6706 26.66 53.0306 27.34C52.3906 27.98 51.6106 28.3 50.6906 28.3C49.8106 28.3 49.0306 27.98 48.3506 27.34C47.7106 26.66 47.3906 25.88 47.3906 25ZM48.2906 36.4H53.0906V64H48.2906V36.4ZM58.4766 36.4H63.8766L71.6766 55.9L79.4766 36.4H84.8766L71.6766 66.1L58.4766 36.4ZM99.2034 64.6C96.6434 64.6 94.3634 64 92.3634 62.8C90.4034 61.56 88.8634 59.86 87.7434 57.7C86.6634 55.54 86.1234 53.04 86.1234 50.2C86.1234 47.32 86.6834 44.8 87.8034 42.64C88.9634 40.48 90.5634 38.8 92.6034 37.6C94.6834 36.4 97.0834 35.8 99.8034 35.8C102.523 35.8 104.843 36.38 106.763 37.54C108.723 38.66 110.223 40.28 111.263 42.4C112.303 44.52 112.823 47.04 112.823 49.96C112.823 50.24 112.803 50.54 112.763 50.86C112.763 51.14 112.763 51.32 112.763 51.4H89.1834V47.32H108.983L107.063 50.08C107.183 49.88 107.303 49.58 107.423 49.18C107.543 48.74 107.603 48.38 107.603 48.1C107.603 46.46 107.263 45.04 106.583 43.84C105.943 42.64 105.043 41.7 103.883 41.02C102.723 40.34 101.363 40 99.8034 40C97.9634 40 96.3834 40.4 95.0634 41.2C93.7834 41.96 92.7834 43.08 92.0634 44.56C91.3834 46 91.0234 47.78 90.9834 49.9C90.9834 52.06 91.3234 53.9 92.0034 55.42C92.6834 56.94 93.6834 58.1 95.0034 58.9C96.3234 59.7 97.9234 60.1 99.8034 60.1C101.683 60.1 103.343 59.7 104.783 58.9C106.223 58.06 107.443 56.8 108.443 55.12L112.343 57.58C110.903 59.9 109.083 61.66 106.883 62.86C104.723 64.02 102.163 64.6 99.2034 64.6Z" fill="#00FF00"/>
<path d="M155.806 21.3055L161.708 15.3877H165.582L168.95 18.7564V27.8405C167.724 28.2258 166.83 29.3678 166.83 30.7229C166.83 32.3868 168.186 33.7419 169.849 33.7419C171.513 33.7419 172.868 32.3868 172.868 30.7229C172.868 29.3733 171.975 28.2258 170.748 27.8405L170.751 18.3871C170.751 18.1521 170.658 17.9227 170.486 17.7533L166.59 13.8573C166.426 13.6906 166.199 13.5977 165.962 13.5977H161.344C161.109 13.5977 160.88 13.6906 160.71 13.8627L154.544 20.0428C154.194 20.3925 154.194 20.9553 154.544 21.305C154.894 21.6547 155.456 21.6552 155.806 21.3055ZM169.86 31.9472C169.183 31.9472 168.634 31.398 168.634 30.7205C168.634 30.0429 169.183 29.4938 169.86 29.4938C170.538 29.4938 171.087 30.0429 171.087 30.7205C171.087 31.398 170.53 31.9472 169.86 31.9472Z" fill="#00FF00"/>
<path d="M155.178 30.2336C154.686 30.2336 154.285 30.6325 154.285 31.127V48.9406C154.285 49.4324 154.684 49.834 155.178 49.834C155.67 49.834 156.072 49.4351 156.072 48.9406V31.1242C156.072 30.6324 155.67 30.2336 155.178 30.2336Z" fill="#00FF00"/>
<path d="M149.825 15.423C148.055 13.9039 145.509 13.2236 143.009 13.6033C139.927 14.0733 137.413 16.1169 136.293 18.9146C133.053 19.8791 130.441 22.1631 129.086 25.2586C128.457 26.693 128.129 28.1929 128.108 29.6983C125.11 31.0699 122.941 33.7447 122.247 36.9633C121.548 40.1243 122.354 43.3947 124.403 45.8621C123.397 47.1189 122.733 48.6679 122.575 50.3646C122.212 54.2333 124.517 57.8289 128.121 59.1564C128.25 60.741 128.714 62.2956 129.506 63.7244C131.211 66.7516 134.225 68.8199 137.629 69.3335C138.828 71.3525 140.847 72.8524 143.224 73.3443C143.76 73.4508 144.309 73.5 144.866 73.5C146.822 73.5 148.828 72.8579 150.197 71.7378C151.516 70.6613 152.21 69.2187 152.21 67.5768V20.6692C152.202 18.6064 151.361 16.7371 149.825 15.423ZM150.41 25.6933C148.741 24.166 146.52 23.33 144.181 23.453C143.689 23.4748 143.304 23.8956 143.331 24.3873C143.353 24.8791 143.774 25.2589 144.266 25.237C146.763 25.1168 149.091 26.3517 150.41 28.4637V37.7856H146.856C145.984 37.7856 145.186 37.4086 144.656 36.7446C144.129 36.0671 143.935 35.2037 144.129 34.3677C144.244 33.8896 143.943 33.4033 143.457 33.2912C142.971 33.1765 142.493 33.477 142.38 33.9633C142.066 35.3266 142.372 36.7392 143.244 37.8539C144.115 38.9467 145.427 39.5751 146.847 39.5751H150.402V48.0472H146.856H146.79C145.413 48.0472 144.121 48.6674 143.227 49.7603C142.364 50.8667 142.05 52.2875 142.372 53.6563C142.465 54.0715 142.837 54.3475 143.244 54.3475C143.309 54.3475 143.38 54.3393 143.451 54.3256C143.929 54.2109 144.23 53.7328 144.123 53.2491C143.93 52.4077 144.115 51.5361 144.637 50.8722C145.181 50.2001 145.992 49.8504 146.842 49.8367H150.396V59.1426C149.077 61.2682 146.744 62.4976 144.252 62.3692C143.76 62.3474 143.339 62.7271 143.309 63.2189C143.282 63.7107 143.667 64.1314 144.159 64.1615C144.309 64.1697 144.465 64.1752 144.615 64.1752C146.784 64.1752 148.833 63.3555 150.396 61.9266V67.5877C150.396 68.6941 149.94 69.6286 149.041 70.3635C147.691 71.47 145.438 71.9755 143.561 71.5984C140.864 71.0411 138.749 68.8499 138.307 66.1451C137.842 63.4047 139.091 60.7055 141.49 59.2874C141.919 59.0388 142.052 58.487 141.804 58.0607C141.555 57.6318 141.003 57.4979 140.577 57.7465C137.536 59.5524 135.952 62.9649 136.536 66.4404C136.585 66.7464 136.656 67.0387 136.744 67.3337C134.353 66.6616 132.282 65.0633 131.042 62.8667C129.564 60.2056 129.449 56.979 130.741 54.2386C130.949 53.7878 130.763 53.2606 130.313 53.0474C129.862 52.8343 129.334 53.0338 129.121 53.4764C128.559 54.6758 128.222 55.9517 128.108 57.244C125.616 56.0391 124.075 53.389 124.34 50.5557C124.646 47.3291 127.217 44.7827 130.449 44.4904C130.941 44.4467 131.304 44.0123 131.263 43.5205C131.22 43.0287 130.785 42.6653 130.294 42.7063C128.537 42.862 126.947 43.5478 125.654 44.6051C124.053 42.5533 123.425 39.9113 123.996 37.3486C124.523 34.9088 126.072 32.846 128.242 31.6384C128.441 32.9006 128.856 34.1355 129.485 35.2995C129.649 35.6 129.955 35.7694 130.269 35.7694C130.411 35.7694 130.561 35.7339 130.698 35.6628C131.132 35.4279 131.296 34.8842 131.061 34.4497C130.362 33.1657 129.985 31.7668 129.911 30.3543C129.919 30.2832 129.919 30.2122 129.903 30.1412C129.867 28.7423 130.138 27.3216 130.722 25.9883C131.714 23.7261 133.507 21.9912 135.747 21.035C135.261 24.7179 137.247 28.3873 140.607 29.9911C141.05 30.2042 141.585 30.013 141.798 29.5704C142.012 29.1278 141.82 28.5923 141.378 28.3792C138.681 27.0951 137.096 24.1335 137.531 21.1772C137.588 20.792 137.681 20.4122 137.796 20.0488C137.823 19.9915 137.84 19.9423 137.861 19.8767C138.689 17.5134 140.738 15.773 143.285 15.3878C145.277 15.0873 147.287 15.6091 148.667 16.7948C149.817 17.7784 150.424 19.1281 150.424 20.6854V25.6934L150.41 25.6933Z" fill="#00FF00"/>
<path d="M136.9 37.5202C136.457 37.2907 135.922 37.4628 135.695 37.9055C135.466 38.3481 135.646 38.8835 136.08 39.1104C137.843 40.0174 138.935 41.8152 138.935 43.8068C138.935 45.7849 137.837 47.5826 136.072 48.5033C135.638 48.7328 135.466 49.2738 135.695 49.7082C135.851 50.0142 136.165 50.1864 136.487 50.1864C136.63 50.1864 136.766 50.1508 136.903 50.0853C139.258 48.8586 140.722 46.4461 140.722 43.7986C140.725 41.1457 139.263 38.7333 136.9 37.5202Z" fill="#00FF00"/>
<path d="M173.322 25.16H175.371L179.404 29.1926V34.2443L175.243 38.4053C174.893 38.7551 174.893 39.3179 175.243 39.6676C175.415 39.8397 175.65 39.9326 175.876 39.9326C176.106 39.9326 176.333 39.8479 176.51 39.6676L180.936 35.2416C181.108 35.0694 181.201 34.8481 181.201 34.6077V28.8184C181.201 28.5834 181.108 28.3539 180.936 28.1845L176.376 23.6246C176.212 23.4525 175.983 23.3596 175.742 23.3596H173.322C172.83 23.3596 172.428 23.7585 172.428 24.253C172.42 24.7584 172.822 25.16 173.322 25.16Z" fill="#00FF00"/>
<path d="M173.62 55.9704C174.112 55.9704 174.513 55.5715 174.513 55.077V45.52C174.513 45.2851 174.42 45.0556 174.248 44.8862L172.235 42.8726C172.063 42.7005 171.841 42.6076 171.601 42.6076H167.803C167.418 41.3809 166.276 40.4875 164.921 40.4875C163.257 40.4875 161.902 41.8426 161.902 43.5065C161.902 45.1704 163.257 46.5255 164.921 46.5255C166.27 46.5255 167.418 45.6321 167.803 44.4054H171.229L172.721 45.8971V55.0743C172.721 55.5688 173.12 55.9704 173.62 55.9704ZM164.92 44.7362C164.243 44.7362 163.694 44.187 163.694 43.5095C163.694 42.8319 164.243 42.2827 164.92 42.2827C165.598 42.2827 166.147 42.8319 166.147 43.5095C166.147 44.1734 165.584 44.7362 164.92 44.7362Z" fill="#00FF00"/>
<path d="M186.231 41.2524C186.231 39.5885 184.876 38.2334 183.212 38.2334C181.548 38.2334 180.193 39.5885 180.193 41.2524C180.193 42.602 181.087 43.7495 182.313 44.1348V55.0961L177.917 59.5058H172.614C172.122 59.5058 171.721 59.9047 171.721 60.3992C171.721 60.891 172.12 61.2926 172.614 61.2926H178.289C178.524 61.2926 178.753 61.1997 178.923 61.0275L183.84 56.096C184.004 55.9321 184.106 55.7026 184.106 55.4622V44.1294C185.34 43.7496 186.231 42.602 186.231 41.2524ZM183.212 42.4736C182.535 42.4736 181.985 41.9245 181.985 41.2469C181.985 40.5693 182.535 40.0202 183.212 40.0202C183.89 40.0202 184.439 40.5693 184.439 41.2469C184.439 41.9245 183.89 42.4736 183.212 42.4736Z" fill="#00FF00"/>
<path d="M172.357 63.3143C170.694 63.3143 169.338 64.6694 169.338 66.3333C169.338 66.8388 169.467 67.3168 169.688 67.7403L165.863 71.579H160.683L156.079 66.9754L156.077 59.3936C156.077 58.9018 155.678 58.5002 155.183 58.5002C154.692 58.5002 154.29 58.8991 154.29 59.3936V67.3356C154.29 67.5705 154.383 67.8 154.555 67.9694L159.686 73.1003C159.85 73.2725 160.079 73.3654 160.32 73.3654H166.243C166.478 73.3654 166.707 73.2725 166.877 73.1003L170.953 69.0103C171.374 69.2398 171.852 69.3682 172.366 69.3682C174.03 69.3682 175.385 68.0049 175.385 66.3356C175.368 64.6608 174.021 63.3143 172.357 63.3143ZM172.357 67.5655C171.68 67.5655 171.131 67.0081 171.131 66.3224C171.131 65.6448 171.68 65.0957 172.357 65.0957C173.035 65.0957 173.584 65.6448 173.584 66.3224C173.579 67.0109 173.027 67.5655 172.357 67.5655Z" fill="#00FF00"/>
<path d="M164.678 25.1383C164.678 23.4744 163.323 22.1193 161.659 22.1193C159.995 22.1193 158.64 23.4744 158.64 25.1383C158.64 26.488 159.533 27.6355 160.76 28.0207V32.6326C160.76 32.8675 160.853 33.097 161.025 33.2664L164.137 36.3783C164.309 36.5559 164.544 36.6433 164.771 36.6433C165 36.6433 165.227 36.5586 165.404 36.3783C165.754 36.0286 165.754 35.4658 165.404 35.1161L162.549 32.261V28.0207C163.779 27.6355 164.678 26.4934 164.678 25.1383ZM161.659 23.917C162.336 23.917 162.885 24.4662 162.885 25.1438C162.885 25.8213 162.336 26.3705 161.659 26.3705C160.981 26.3705 160.432 25.8213 160.432 25.1438C160.432 24.4662 160.981 23.917 161.659 23.917Z" fill="#00FF00"/>
<path d="M165.407 51.8857C165.757 51.536 165.757 50.9732 165.407 50.6235C165.057 50.2737 164.495 50.2737 164.145 50.6235L161.033 53.749C160.869 53.913 160.768 54.1425 160.768 54.3774V58.9729C159.541 59.3581 158.648 60.5001 158.648 61.8553C158.648 63.5191 160.003 64.8743 161.667 64.8743C163.331 64.8743 164.686 63.5191 164.686 61.8553C164.686 60.5056 163.793 59.3581 162.566 58.9729V54.749L165.407 51.8857ZM161.659 63.0849C160.981 63.0849 160.432 62.5357 160.432 61.8582C160.432 61.1806 160.981 60.6287 161.659 60.6287C162.336 60.6287 162.885 61.1779 162.885 61.8555C162.885 62.5358 162.336 63.0849 161.659 63.0849Z" fill="#00FF00"/>
<path d="M203.851 35.62L200.731 64H195.631L200.731 19.9L217.531 50.32L234.331 19.9L239.431 64H234.331L231.211 35.62L217.531 60.1L203.851 35.62ZM246.305 25C246.305 24.08 246.625 23.3 247.265 22.66C247.945 22.02 248.725 21.7 249.605 21.7C250.525 21.7 251.305 22.02 251.945 22.66C252.585 23.3 252.905 24.08 252.905 25C252.905 25.88 252.585 26.66 251.945 27.34C251.305 27.98 250.525 28.3 249.605 28.3C248.725 28.3 247.945 27.98 247.265 27.34C246.625 26.66 246.305 25.88 246.305 25ZM247.205 36.4H252.005V64H247.205V36.4ZM279.591 47.2C279.591 44.92 279.091 43.2 278.091 42.04C277.091 40.88 275.631 40.3 273.711 40.3C272.311 40.3 271.071 40.6 269.991 41.2C268.951 41.76 268.131 42.56 267.531 43.6C266.971 44.64 266.691 45.84 266.691 47.2V64H261.891V36.4H266.691V40.72C267.611 39.04 268.751 37.8 270.111 37C271.511 36.2 273.111 35.8 274.911 35.8C277.831 35.8 280.131 36.78 281.811 38.74C283.531 40.66 284.391 43.28 284.391 46.6V64H279.591V47.2ZM314.115 17.2H318.915V64H314.115V17.2ZM291.015 50.2C291.015 47.2 291.635 44.64 292.875 42.52C294.115 40.36 295.775 38.7 297.855 37.54C299.935 36.38 302.215 35.8 304.695 35.8C307.015 35.8 309.035 36.38 310.755 37.54C312.475 38.7 313.815 40.36 314.775 42.52C315.775 44.64 316.275 47.2 316.275 50.2C316.275 53.16 315.775 55.72 314.775 57.88C313.815 60.04 312.475 61.7 310.755 62.86C309.035 64.02 307.015 64.6 304.695 64.6C302.215 64.6 299.935 64.02 297.855 62.86C295.775 61.7 294.115 60.04 292.875 57.88C291.635 55.72 291.015 53.16 291.015 50.2ZM295.875 50.2C295.875 52.32 296.295 54.12 297.135 55.6C298.015 57.08 299.175 58.2 300.615 58.96C302.055 59.72 303.615 60.1 305.295 60.1C306.695 60.1 308.075 59.72 309.435 58.96C310.795 58.2 311.915 57.08 312.795 55.6C313.675 54.12 314.115 52.32 314.115 50.2C314.115 48.08 313.675 46.28 312.795 44.8C311.915 43.32 310.795 42.2 309.435 41.44C308.075 40.68 306.695 40.3 305.295 40.3C303.615 40.3 302.055 40.68 300.615 41.44C299.175 42.2 298.015 43.32 297.135 44.8C296.295 46.28 295.875 48.08 295.875 50.2Z" fill="#00FF00"/>
</svg>
