<svg width="56" height="81" viewBox="0 0 56 81" fill="none" xmlns="http://www.w3.org/2000/svg">
<path d="M30.6133 0.14649C29.8306 0.13915 29.0627 0.151067 28.3066 0.162115C26.7517 0.139414 25.1386 0.118103 23.4824 0.253912C20.7832 0.476512 17.9628 1.12114 14.9316 2.83594C10.0335 5.60994 4.57808 11.1953 2.23828 18.1875C-0.0312153 24.9845 0.695313 33.0039 1.11328 37.4961L1.125 37.6602L1.14063 37.8164V37.8203L1.17578 38.1875C1.55858 42.3437 3.65235 51.4922 5.15234 53.9414C6.35274 56.9639 7.0484 58.4367 7.46094 59.0781C9.658 65.8482 19.1317 77.8208 21.4023 77.9824C21.4274 78.2478 25.1634 79.9499 26.4395 80.084C26.9395 80.1387 27.4121 80.1309 27.8066 80.127C28.1362 80.1375 28.3853 80.1304 28.584 80.1133C28.6639 80.1181 28.7338 80.1269 28.8281 80.127C29.2227 80.1309 29.6953 80.1387 30.1953 80.084C31.4713 79.9499 35.2069 78.2479 35.2324 77.9824C37.504 77.8179 46.9705 65.852 49.1699 59.082C49.582 58.4435 50.2787 56.9724 51.4824 53.9414C52.9824 51.4922 55.0762 42.3437 55.459 38.1875L55.4941 37.8203V37.8164L55.5098 37.6602L55.5215 37.4961C55.9395 33.0039 56.666 24.9845 54.3965 18.1875C52.0567 11.1953 46.5993 5.60994 41.7012 2.83594C38.67 1.12114 35.8496 0.476512 33.1504 0.253912C32.293 0.183602 31.4463 0.154303 30.6133 0.14649ZM26.041 2.4629C26.7427 2.45683 27.4519 2.46815 28.1699 2.47852C28.1779 2.47854 28.1853 2.48062 28.1934 2.48047C28.235 2.47987 28.2748 2.48108 28.3164 2.48047C28.358 2.48108 28.3978 2.47987 28.4395 2.48047C28.4474 2.48062 28.455 2.47854 28.4629 2.47852C29.9898 2.45647 31.4659 2.43716 32.959 2.56251C35.3965 2.76563 37.8769 3.33591 40.5605 4.85157C45.0371 7.38677 50.0681 12.5472 52.1973 18.9219C53.7676 23.6182 53.7926 29.03 53.5293 33.3691C53.4068 33.0906 53.1766 32.8605 52.8672 32.75C51.6758 32.3164 50.3867 31.8438 48.9492 31.582C48.1562 31.4375 47.3359 31.3594 46.5234 31.3125C46.2902 31.2986 46.0563 31.2878 45.8223 31.2773C45.8949 29.9045 45.5273 28.8321 45.1602 27.9356C45.5513 26.9781 45.959 25.7704 45.6602 24.2695C45.3399 22.6602 44.2227 20.7774 42.7891 19.6172C41.6594 18.7046 40.3394 18.2442 39.0742 18.1699C39.0552 18.0537 39.0178 17.9388 38.9609 17.8281C38.2422 16.418 37.2891 14.4336 35.5 13.6289C34.2852 13.082 32.8516 13.1367 31.6875 13.4063C31.1016 13.543 30.5391 13.7461 30.0469 13.9922C29.2341 14.4007 28.6557 14.917 28.209 15.4453C28.1769 15.4426 28.1441 15.4414 28.1113 15.4414H28.1074C27.4727 14.6818 26.6822 13.9525 25.6367 13.5586C24.4765 13.1172 23.1132 13.125 21.9609 13.3906C21.4493 13.5078 20.9492 13.6836 20.5 13.918C19.2923 14.5405 18.5916 15.5095 18.0742 16.3711C17.9897 16.3657 17.9046 16.3623 17.8203 16.3594C17.0195 16.3242 15.8281 16.3672 14.9883 17.2617C14.2369 18.0646 13.9729 19.4348 13.8262 20.5996C12.9423 20.7037 11.9109 20.9659 11.0312 21.8711C9.96094 22.9687 9.1875 24.9804 9.34375 26.5781C9.49354 28.1064 10.47 29.1226 11.2539 29.8477C11.1009 30.2794 10.9856 30.7599 10.9238 31.2656C10.603 31.2786 10.2813 31.2934 9.96094 31.3125C9.15234 31.3594 8.33204 31.4375 7.53516 31.582C6.09766 31.8438 4.80859 32.3164 3.61719 32.75C3.40087 32.8273 3.2234 32.9632 3.09375 33.1328C2.84535 28.8333 2.89268 23.536 4.43555 18.9219C6.56475 12.5472 11.5957 7.38677 16.0723 4.85157C18.7559 3.33591 21.2363 2.76563 23.6738 2.56251C24.4648 2.4961 25.2505 2.46973 26.041 2.4629Z" fill="#AAAAAA"/>
</svg>
